<svg width="512" height="512" viewBox="0 0 512 512" fill="none" xmlns="http://www.w3.org/2000/svg">
<rect width="512" height="512" fill="white"/>
<path d="M282.184 344.395C287.522 358.812 303.74 366.245 318.407 360.998C333.074 355.751 340.636 339.81 335.298 325.393L277.055 168.104C271.717 153.687 255.499 146.254 240.832 151.501C226.165 156.748 218.602 172.689 223.941 187.106L282.184 344.395Z" fill="white"/>
<path d="M308.694 368.713C303.743 368.713 298.792 367.598 294.151 365.57C285.796 361.718 279.504 354.925 276.307 346.51L218.134 189.164C215.039 180.647 215.349 171.523 219.268 163.311C223.188 155.099 230.098 148.914 238.659 145.771C247.323 142.629 256.606 143.034 264.961 146.887C273.316 150.739 279.608 157.532 282.805 165.947L341.081 323.192C344.176 331.708 343.866 340.833 339.947 349.045C336.027 357.257 329.117 363.441 320.556 366.584C316.739 368.004 312.717 368.612 308.797 368.612L308.694 368.713ZM250.418 155.91C247.839 155.91 245.261 156.315 242.888 157.228C237.318 159.255 232.883 163.209 230.408 168.481C227.932 173.753 227.623 179.633 229.686 185.108L287.962 342.354C292.088 353.607 304.878 359.386 316.327 355.331C321.897 353.303 326.332 349.349 328.807 344.077C331.283 338.805 331.592 332.925 329.529 327.45L271.253 170.205C269.19 164.73 265.167 160.371 259.804 157.937C256.813 156.619 253.615 155.91 250.521 155.91H250.418Z" fill="#F8C048"/>
<path d="M299.204 238.739L334.892 335.661C337.986 344.076 330.25 354.519 317.46 358.979C304.671 363.44 291.984 360.5 288.786 352.085L253.511 255.467L299.101 238.637L299.204 238.739Z" fill="#F8C048"/>
<path d="M178.78 168.125C173.442 153.709 157.224 146.275 142.557 151.523C127.89 156.77 120.328 172.711 125.666 187.127L183.909 344.417C189.247 358.833 205.465 366.267 220.132 361.02C234.799 355.772 242.362 339.831 237.023 325.415L178.78 168.125Z" fill="white"/>
<path d="M210.398 368.713C205.447 368.713 200.496 367.598 195.855 365.57C187.5 361.718 181.208 354.925 178.011 346.51L119.838 189.163C116.743 180.647 117.156 171.523 120.972 163.311C124.892 155.098 131.802 148.914 140.466 145.771C149.131 142.628 158.414 143.034 166.768 146.886C175.123 150.739 181.415 157.532 184.612 165.946L242.889 323.192C245.983 331.708 245.674 340.833 241.754 349.045C237.835 357.257 230.924 363.441 222.363 366.584C218.547 368.003 214.524 368.612 210.605 368.612L210.398 368.713ZM152.225 155.91C149.749 155.91 147.171 156.315 144.695 157.228C139.126 159.255 134.69 163.209 132.215 168.481C129.74 173.753 129.43 179.633 131.493 185.108L189.769 342.353C191.832 347.828 195.855 352.188 201.218 354.621C206.582 357.054 212.564 357.358 218.134 355.33C223.704 353.303 228.139 349.349 230.614 344.077C233.09 338.805 233.399 332.925 231.336 327.45L172.957 170.205C169.656 161.384 161.198 155.91 152.122 155.91H152.225Z" fill="#F8C048"/>
<path d="M161.714 273.716L125.923 176.794C122.828 168.379 130.564 157.936 143.354 153.476C156.144 149.015 168.83 151.955 172.028 160.37L207.303 256.988L161.714 273.818V273.716Z" fill="#F8C048"/>
<path d="M368.826 153.071C360.884 154.49 353.56 158.951 348.609 165.947C338.811 179.938 342.421 199.302 356.758 208.933C370.992 218.565 390.692 215.016 400.491 200.924C410.29 186.933 406.68 167.569 392.342 157.938C385.226 153.071 376.768 151.55 368.826 153.071V153.071ZM370.373 161.385C376.046 160.371 382.234 161.385 387.392 164.933C397.809 171.928 400.388 185.818 393.271 196.058C386.154 206.297 372.023 208.832 361.606 201.836C351.188 194.841 348.609 180.952 355.726 170.712C359.336 165.643 364.597 162.398 370.373 161.385V161.385Z" fill="#F8C048"/>
<path d="M352.942 197.983L326.537 236.002C323.855 239.854 324.784 245.025 328.703 247.762C332.623 250.398 337.986 249.485 340.668 245.633L366.866 207.918C366.041 207.614 365.216 207.31 364.494 206.905C359.956 204.877 356.036 201.835 352.942 198.084V197.983Z" fill="#F8C048"/>
</svg>
